<?xml version="1.0" encoding="utf-8"?>
<!-- Generator: Adobe Illustrator 22.0.1, SVG Export Plug-In . SVG Version: 6.00 Build 0)  -->
<svg version="1.1" id="Layer_1" xmlns="http://www.w3.org/2000/svg" xmlns:xlink="http://www.w3.org/1999/xlink" x="0px" y="0px"
	 viewBox="0 0 64 64" style="enable-background:new 0 0 64 64;" xml:space="preserve">
<style type="text/css">
	.st0{fill:#FFFFFF;}
</style>
<g>
	<path class="st0" d="M22.8,13.8c-8.4-1.5-15,0-17.6,4.6c-2,3.4-1.4,7.9,1.3,12.7c0.3,0.4,0.9,0.6,1.3,0.3c0.3-0.3,0.5-0.8,0.3-1.2
		c-2.5-4.3-3-8.2-1.4-11c2.1-3.9,8.2-5.2,15.9-3.9c0.4,0.1,0.9-0.2,0.9-0.6C23.6,14.3,23.3,13.9,22.8,13.8z M10.9,37
		c3.4,3.7,7.8,7.2,12.9,10.1c12.1,6.9,25,8.6,31.4,4.3c0.4-0.4,0.4-0.9,0.2-1.3c-0.3-0.4-0.9-0.4-1.2-0.4c-6,3.9-18,2.1-29.6-4.6
		c-5.2-2.6-9.4-6-12.4-9.6c-0.4-0.3-0.9-0.4-1.3,0c-0.4,0.3-0.4,0.9,0,1.2L10.9,37z"/>
	<path class="st0" d="M53.1,36c5.5-6.4,7.4-13,4.7-17.6c-1.9-3.3-6-5.2-11.4-5.2c-0.4,0-0.9,0.3-0.9,0.9c0,0.4,0.3,0.9,0.9,0.9
		c4.9,0,8.4,1.6,10,4.3c2.1,3.9,0.5,9.6-4.5,15.6c-0.3,0.3-0.3,0.9,0.1,1.2C52.3,36.4,52.8,36.4,53.1,36z M39,14
		c-5,1.1-10.2,3.1-15.3,6.1C11.2,27.3,3,38,4.1,45.8c0.1,0.4,0.5,0.9,1,0.7c0.4-0.1,0.9-0.5,0.7-1c-1-6.9,6.7-16.8,18.8-23.7
		c4.9-3,10-5.2,14.8-6.1c0.4,0,0.8-0.4,0.7-1C39.9,14.3,39.5,14,39,14L39,14z"/>
	<path class="st0" d="M18.7,51.1c2.9,8,7.6,12.9,12.9,12.9c3.8,0,7.3-2.6,10.1-7.2c0-0.4,0-0.9-0.4-1.2c-0.4-0.2-0.9-0.1-1.3,0.3
		c-2.6,4.2-5.6,6.4-8.6,6.4c-4.3,0-8.6-4.4-11.2-11.8c-0.4-0.9-0.9-0.9-1.3-0.9c-0.4,0-0.9,0.4-0.4,0.9L18.7,51.1z M44.9,49.6
		c1.5-4.7,2.3-10.2,2.3-15.9c0-14.3-5-26.5-12-29.6c-0.4-0.3-1,0-1.2,0.4c-0.2,0.4,0,0.9,0.4,1.1c6.4,3,11.1,14.6,11.1,28.3
		c0,5.6-0.8,10.7-2.1,15.5c-0.2,0.4,0,0.9,0.5,1.3c0.4,0.2,0.9-0.1,1.1-0.5V49.6z M61.1,48.7c0-2.3-1.8-4.1-4.1-4.1
		c-2.3,0-4.1,1.8-4.1,4.1c0,2.3,1.8,4.1,4.1,4.1S61.1,51,61.1,48.7L61.1,48.7z M59.4,48.7c0,1.3-1.1,2.4-2.4,2.4
		c-1.3,0-2.4-1.1-2.4-2.4c0-1.3,1.1-2.4,2.4-2.4C58.3,46.3,59.3,47.4,59.4,48.7L59.4,48.7z M6.1,52.8c2.3,0,4.1-1.8,4.1-4.1
		c0-2.3-1.9-4.1-4.1-4.1S2,46.4,2,48.7C2,51,3.8,52.8,6.1,52.8z M6.1,51.1c-1.3,0-2.4-1.1-2.4-2.4c0-1.3,1-2.4,2.4-2.4
		c1.3,0,2.4,1.1,2.4,2.4C8.5,50,7.4,51.1,6.1,51.1z"/>
	<path class="st0" d="M31.6,8.2c2.2,0,4.1-1.8,4.1-4.1c0-2.3-1.8-4.1-4.1-4.1s-4.1,2.1-4.1,4.3s1.9,4.3,4.1,4.3V8.2z M31.6,6.5
		c-1.3,0-2.4-1.1-2.4-2.4s1-2.4,2.4-2.4c1.3,0,2.4,1.1,2.4,2.4C33.9,5.4,32.9,6.5,31.6,6.5z M32.2,36.5c-1.6,0.4-3.2-0.6-3.5-2.2
		c-0.3-1.6,0.7-3.2,2.3-3.6c1.6-0.3,3.1,0.7,3.6,2.3C34.8,34.6,33.8,36.2,32.2,36.5L32.2,36.5z"/>
</g>
</svg>
